<svg width="480" height="480" viewBox="0 0 480 480" fill="none" xmlns="http://www.w3.org/2000/svg">
<rect width="480" height="480" fill="#1E1E1E"/>
<circle cx="240" cy="240" r="240" fill="#111111"/>
<path d="M217.875 66.2657C106.233 81.0607 80.6624 151.161 71.1617 209.686C67.9296 210.063 61.0026 208.746 46.7936 209.498C34.6079 210.143 27.5193 218.821 27.3019 226.208C26.7427 245.213 33.6844 248.755 41.6049 251.873C46.4198 253.769 63.3754 253.017 70.7794 252.099C69.7973 270.538 83.3644 303.359 90.2707 317.465L66.6229 339.31C49.8354 323.074 40.5095 280.718 37.945 261.569C29.2787 259.093 19.4627 252.567 16.9243 236.715C13.6895 216.514 29.7921 201.824 38.3301 199.28C58.3598 82.284 159.803 42.0163 208.021 36.5069C212.745 18.0966 229.101 13.4957 236.689 13.4965C258.862 14.6303 266.532 25.4279 270.845 36.9029C384.658 58.4942 433.232 152.838 443.292 197.311C450.225 199.292 458.059 204.996 461.109 207.6C470.218 216.962 469.132 232.642 467.45 239.311C463.33 253.734 453.314 259.106 448.822 259.989C448.668 284.905 436.515 321.04 430.459 335.992L400.636 313.824C408.714 291.172 413.841 262.13 415.394 250.441L432.243 250.054C438.926 250.879 454.493 247.969 457.061 231.144C459.776 213.362 444.638 207.445 436.041 206.289L412.363 208.595C368.472 74.0632 291.147 75.2622 258.958 66.0673L258.258 40.7637C257.586 35.2583 251.263 24.2779 237.657 24.1727C223.658 24.0646 217.631 35.4995 217.686 42.5177L217.875 66.2657Z" fill="#F8EEE4"/>
<path d="M243.144 457.332C227.929 452.466 227.441 431.83 229.099 422.121L211.423 418.371C206.507 421.517 193.029 424.167 184.191 422.292C175.353 420.418 159.737 409.457 155.71 402.457C151.684 395.457 142.331 395.385 140.578 396.835C139.176 397.994 125.255 400.474 118.47 401.569C123.667 411.503 147.949 424.94 159.471 431.481C169.469 437.157 206.11 449.197 223.109 452.97C225.759 456.977 231.112 466.453 250.028 469.127C271.2 472.12 280.624 456.294 282.856 448.482C310.811 446.718 329.719 437.863 343.779 430.83C355.504 424.965 376.929 409.317 385.717 401.21C390.39 394.226 386.929 394.624 384.614 395.696C379.005 400.333 360.315 394.821 351.671 391.485C348.783 392.22 344.669 394.901 342.973 396.15C341.462 401.439 338.29 406.296 336.892 408.063C331.091 415.246 323.36 418.714 320.22 419.55C317.756 420.363 311.329 422.08 305.332 422.447C299.335 422.814 291.278 419.3 288 417.496L274.797 421.525C275.636 427.181 276.621 439.985 273.845 445.952C270.375 453.411 262.162 463.415 243.144 457.332Z" fill="#F8EEE4"/>
<path d="M247.466 435.167L246.15 413.992C245.875 412.613 246.169 409.707 249.552 409.114C252.936 408.52 254.517 412.048 254.884 413.887L256.991 434.638C256.981 437.018 256.059 441.652 252.455 441.142C248.851 440.633 247.628 436.947 247.466 435.167Z" fill="#F8EEE4"/>
<path d="M428.862 224.388L400.65 225.004C397.829 224.982 397.359 227.863 397.305 229.928C397.251 231.992 399.587 233.245 401.279 233.258L432.373 233.191C434.196 233.062 435.751 232.085 436.217 228.579C436.683 225.072 432.243 224.271 428.862 224.388Z" fill="#F8EEE4"/>
<path d="M83.1874 236.535L51.69 236.637C50.8993 237.061 47.4235 236.199 46.2531 233.265C44.7905 229.598 47.8888 227.257 50.1465 226.385L82.6673 226.636C85.1087 226.684 88.4435 228.43 87.9774 231.937C87.5113 235.444 85.067 236.205 83.1874 236.535Z" fill="#F8EEE4"/>
<path d="M232.675 66.3801L232.518 46.5017C232.414 44.522 234.046 40.5768 237.787 40.6055C241.528 40.6342 243.23 43.5606 243.54 45.5992L243.702 65.9461C243.955 68.185 242.853 73.0924 238.71 73.0604C234.037 73.0243 233.169 69.3379 232.675 66.3801Z" fill="#F8EEE4"/>
<path fill-rule="evenodd" clip-rule="evenodd" d="M125.129 296.223C108.449 337.738 76.1336 359.143 62.0608 364.656L61.3741 367.06L82.4209 373.072C94.9354 371.303 98.8089 373.601 100.111 374.373C100.551 374.634 100.697 374.721 100.784 374.417C114.207 383.428 118.203 382.325 120.212 381.771C120.725 381.629 121.109 381.523 121.487 381.631C141.323 374.947 145.362 376.357 150.082 378.004C150.827 378.264 151.589 378.53 152.433 378.771C156.202 379.848 163.185 386.18 169.593 391.99C173.71 395.723 177.59 399.24 180.227 401.01C186.968 405.536 198.387 410.098 219.834 388.925C236.992 371.986 255.705 376.638 262.916 381.082C276.607 394.877 307.287 417.48 320.485 397.527C334.442 376.427 345.179 374.989 350.819 374.234C351.846 374.096 352.704 373.981 353.382 373.774C354.969 373.29 358.519 374.465 362.777 375.875C370.326 378.374 380.098 381.609 385.088 377.631C391.33 372.654 397.406 369.667 399.663 368.795C406.66 367.927 410.19 367.101 414.862 366.008C417.606 365.366 420.744 364.632 425.21 363.743C434.865 361.821 435.191 357.71 434.147 355.896C405.256 347.643 395.577 334.581 379.579 312.991C376.725 309.139 373.669 305.015 370.268 300.599C352.294 277.265 333.281 198.819 326.021 162.512C324.132 137.872 304.79 87.2968 242.531 82.1139C180.271 76.9311 159.139 126.376 156.356 151.746C152.897 182.607 141.808 254.709 125.129 296.223ZM202.876 143.585C197.409 143.974 186.112 147.896 184.659 160.481C182.844 176.212 181.991 190.918 195.37 197.99C206.073 203.647 214.936 199.029 218.029 196.013C222.155 193.291 226.889 185.154 225.479 167.591C224.068 150.029 213.468 144.011 202.876 143.585ZM255.702 162.575C255.943 148.604 267.167 143.534 272.748 142.745C277.069 142.462 287.191 143.75 293.108 151.161C299.026 158.571 299.663 172.749 299.241 178.912C298.855 185.735 294.43 199.507 279.823 200.015C261.564 200.649 255.4 180.038 255.702 162.575Z" fill="#F8EEE4"/>
<path d="M217.875 66.2657C106.233 81.0607 80.6624 151.161 71.1617 209.686C67.9296 210.063 61.0026 208.746 46.7936 209.498C34.6079 210.143 27.5193 218.821 27.3019 226.208C26.7427 245.213 33.6844 248.755 41.6049 251.873C46.4198 253.769 63.3754 253.017 70.7794 252.099C69.7973 270.538 83.3644 303.359 90.2707 317.465L66.6229 339.31C49.8354 323.074 40.5095 280.718 37.945 261.569C29.2787 259.093 19.4627 252.567 16.9243 236.715C13.6895 216.514 29.7921 201.824 38.3301 199.28C58.3598 82.284 159.803 42.0163 208.021 36.5069C212.745 18.0966 229.101 13.4957 236.689 13.4965C258.862 14.6303 266.532 25.4279 270.845 36.9029C384.658 58.4942 433.232 152.838 443.292 197.311C450.225 199.292 458.059 204.996 461.109 207.6C470.218 216.962 469.132 232.642 467.45 239.311C463.33 253.734 453.314 259.106 448.822 259.989C448.668 284.905 436.515 321.04 430.459 335.992L400.636 313.824C408.714 291.172 413.841 262.13 415.394 250.441L432.243 250.054C438.926 250.879 454.493 247.969 457.061 231.144C459.776 213.362 444.638 207.445 436.041 206.289L412.363 208.595C368.472 74.0632 291.147 75.2622 258.958 66.0673L258.258 40.7637C257.586 35.2583 251.263 24.2779 237.657 24.1727C223.658 24.0646 217.631 35.4995 217.686 42.5177L217.875 66.2657Z" stroke="black"/>
<path d="M243.144 457.332C227.929 452.466 227.441 431.83 229.099 422.121L211.423 418.371C206.507 421.517 193.029 424.167 184.191 422.292C175.353 420.418 159.737 409.457 155.71 402.457C151.684 395.457 142.331 395.385 140.578 396.835C139.176 397.994 125.255 400.474 118.47 401.569C123.667 411.503 147.949 424.94 159.471 431.481C169.469 437.157 206.11 449.197 223.109 452.97C225.759 456.977 231.112 466.453 250.028 469.127C271.2 472.12 280.624 456.294 282.856 448.482C310.811 446.718 329.719 437.863 343.779 430.83C355.504 424.965 376.929 409.317 385.717 401.21C390.39 394.226 386.929 394.624 384.614 395.696C379.005 400.333 360.315 394.821 351.671 391.485C348.783 392.22 344.669 394.901 342.973 396.15C341.462 401.439 338.29 406.296 336.892 408.063C331.091 415.246 323.36 418.714 320.22 419.55C317.756 420.363 311.329 422.08 305.332 422.447C299.335 422.814 291.278 419.3 288 417.496L274.797 421.525C275.636 427.181 276.621 439.985 273.845 445.952C270.375 453.411 262.162 463.415 243.144 457.332Z" stroke="black"/>
<path d="M247.466 435.167L246.15 413.992C245.875 412.613 246.169 409.707 249.552 409.114C252.936 408.52 254.517 412.048 254.884 413.887L256.991 434.638C256.981 437.018 256.059 441.652 252.455 441.142C248.851 440.633 247.628 436.947 247.466 435.167Z" stroke="black"/>
<path d="M428.862 224.388L400.65 225.004C397.829 224.982 397.359 227.863 397.305 229.928C397.251 231.992 399.587 233.245 401.279 233.258L432.373 233.191C434.196 233.062 435.751 232.085 436.217 228.579C436.683 225.072 432.243 224.271 428.862 224.388Z" stroke="black"/>
<path d="M83.1874 236.535L51.69 236.637C50.8993 237.061 47.4235 236.199 46.2531 233.265C44.7905 229.598 47.8888 227.257 50.1465 226.385L82.6673 226.636C85.1087 226.684 88.4435 228.43 87.9774 231.937C87.5113 235.444 85.067 236.205 83.1874 236.535Z" stroke="black"/>
<path d="M232.675 66.3801L232.518 46.5017C232.414 44.522 234.046 40.5768 237.787 40.6055C241.528 40.6342 243.23 43.5606 243.54 45.5992L243.702 65.9461C243.955 68.185 242.853 73.0924 238.71 73.0604C234.037 73.0243 233.169 69.3379 232.675 66.3801Z" stroke="black"/>
<path fill-rule="evenodd" clip-rule="evenodd" d="M125.129 296.223C108.449 337.738 76.1336 359.143 62.0608 364.656L61.3741 367.06L82.4209 373.072C94.9354 371.303 98.8089 373.601 100.111 374.373C100.551 374.634 100.697 374.721 100.784 374.417C114.207 383.428 118.203 382.325 120.212 381.771C120.725 381.629 121.109 381.523 121.487 381.631C141.323 374.947 145.362 376.357 150.082 378.004C150.827 378.264 151.589 378.53 152.433 378.771C156.202 379.848 163.185 386.18 169.593 391.99C173.71 395.723 177.59 399.24 180.227 401.01C186.968 405.536 198.387 410.098 219.834 388.925C236.992 371.986 255.705 376.638 262.916 381.082C276.607 394.877 307.287 417.48 320.485 397.527C334.442 376.427 345.179 374.989 350.819 374.234C351.846 374.096 352.704 373.981 353.382 373.774C354.969 373.29 358.519 374.465 362.777 375.875C370.326 378.374 380.098 381.609 385.088 377.631C391.33 372.654 397.406 369.667 399.663 368.795C406.66 367.927 410.19 367.101 414.862 366.008C417.606 365.366 420.744 364.632 425.21 363.743C434.865 361.821 435.191 357.71 434.147 355.896C405.256 347.643 395.577 334.581 379.579 312.991C376.725 309.139 373.669 305.015 370.268 300.599C352.294 277.265 333.281 198.819 326.021 162.512C324.132 137.872 304.79 87.2968 242.531 82.1139C180.271 76.9311 159.139 126.376 156.356 151.746C152.897 182.607 141.808 254.709 125.129 296.223ZM202.876 143.585C197.409 143.974 186.112 147.896 184.659 160.481C182.844 176.212 181.991 190.918 195.37 197.99C206.073 203.647 214.936 199.029 218.029 196.013C222.155 193.291 226.889 185.154 225.479 167.591C224.068 150.029 213.468 144.011 202.876 143.585ZM255.702 162.575C255.943 148.604 267.167 143.534 272.748 142.745C277.069 142.462 287.191 143.75 293.108 151.161C299.026 158.571 299.663 172.749 299.241 178.912C298.855 185.735 294.43 199.507 279.823 200.015C261.564 200.649 255.4 180.038 255.702 162.575Z" stroke="black"/>
</svg>
